<?xml version="1.0" encoding="utf-8"?>
<!-- Generator: Adobe Illustrator 16.0.0, SVG Export Plug-In . SVG Version: 6.00 Build 0)  -->
<!DOCTYPE svg PUBLIC "-//W3C//DTD SVG 1.1//EN" "http://www.w3.org/Graphics/SVG/1.1/DTD/svg11.dtd">
<svg version="1.1" id="Calque_1" xmlns="http://www.w3.org/2000/svg" xmlns:xlink="http://www.w3.org/1999/xlink" x="0px" y="0px"
	 width="600px" height="200px" viewBox="0 0 600 200" enable-background="new 0 0 600 200" xml:space="preserve">
<g>
	<path fill="#FFFFFF" d="M159.292,111.135c0.586-2.035,1.218-3.85,2.075-5.774l21.876-48.449c0.767-1.705,1.443-1.815,3.022-1.815
		h6.45v78.805h-7.667V75.994c0-1.54,0.045-3.354,0.18-5.169l-22.146,49.274c-0.767,1.649-1.804,2.475-3.157,2.475h-1.263
		c-1.353,0-2.391-0.825-3.157-2.475L132.861,70.66c0.18,1.925,0.271,3.794,0.271,5.334v57.907h-7.668V55.097h6.45
		c1.579,0,2.255,0.11,3.022,1.815l22.327,48.503C158.12,107.175,158.707,109.154,159.292,111.135z"/>
	<path fill="#FFFFFF" d="M235.511,111.135c0.586-2.035,1.218-3.85,2.075-5.774l21.876-48.449c0.767-1.705,1.443-1.815,3.022-1.815
		h6.45v78.805h-7.667V75.994c0-1.54,0.045-3.354,0.18-5.169L239.3,120.099c-0.767,1.649-1.804,2.475-3.157,2.475h-1.263
		c-1.353,0-2.391-0.825-3.157-2.475L209.08,70.66c0.18,1.925,0.271,3.794,0.271,5.334v57.907h-7.668V55.097h6.45
		c1.579,0,2.255,0.11,3.022,1.815l22.327,48.503C234.339,107.175,234.925,109.154,235.511,111.135z"/>
	<path fill="#FFFFFF" d="M288.276,133.901h-8.75V55.097h8.75V133.901z"/>
	<path fill="#FFFFFF" d="M351.672,69.169h-20.625v64.732H312.84V69.169h-20.464V55.097h59.296V69.169z"/>
	<path fill="#FFFFFF" d="M376.98,112.522l0.537,2.868h0.322l0.537-2.651L393.9,55.097h19.014l-25.352,78.805h-19.605l-25.244-78.805
		h18.961L376.98,112.522z"/>
</g>
<rect x="100.667" y="35" fill="none" stroke="#FFFFFF" stroke-width="5" stroke-miterlimit="10" width="333.833" height="118"/>
</svg>
